<svg width="2571" height="1753" viewBox="0 0 2571 1753" fill="none" xmlns="http://www.w3.org/2000/svg">
<path d="M2506.09 1596.73C2416.95 1660.25 2313.26 1687.65 2208.42 1708.78C2130.54 1724.5 2051.03 1733.41 1972.09 1743.07C1740.57 1771.57 1521.87 1737.61 1318.67 1624.53C1317.67 1623.95 1316.68 1623.38 1315.68 1622.8C1304.61 1616.73 1293.66 1610.36 1282.83 1603.69C1194.06 1549.97 1104.58 1497.55 1013.3 1444.4C971.488 1420.08 929.676 1395.76 887.171 1370.98C886.869 1370.86 886.478 1370.53 886.478 1370.53C880.357 1366.11 874.449 1361.61 868.45 1356.9C867.847 1356.65 867.545 1356.53 867.365 1356.11C867.275 1355.89 866.884 1355.56 866.672 1355.65C726.472 1248.41 603.704 1138.05 526.399 1061.21C487.64 1022.84 460.338 992.627 447.89 975.634C438.161 966.245 428.433 956.856 418.704 947.467C417.529 946.464 417.26 945.827 417.26 945.827C393.225 922.734 369.01 899.217 345.398 875.944C345.007 875.61 344.917 875.398 344.525 875.063C284.743 816.575 225.841 757.214 168.031 696.89C49.7033 573.387 -62.6153 444.587 -163.672 305.764C-204.503 249.507 -240.14 187.799 -269.179 124.546C-307.297 41.6238 -284.149 -19.4629 -197.978 -52.204C-29.5096 -116.796 426.421 -216.571 490.654 -238.519C531.816 -189.157 739.536 56.8442 858.104 151.977C855.028 150.028 852.041 148.291 848.965 146.341C953.544 245.647 1053.9 349.744 1160.7 446.61C1265.36 541.379 1373.09 631.594 1484.11 717.166C1770.7 939.772 2076.67 1134.91 2392.84 1315.72C2438.06 1341.6 2482.75 1370.95 2520.89 1406.09C2592.71 1471.73 2585.83 1539.94 2506.09 1596.73Z" fill="url(#paint0_linear_663_446)"/>
<defs>
<linearGradient id="paint0_linear_663_446" x1="1136.61" y1="-599.319" x2="1164.17" y2="7099.19" gradientUnits="userSpaceOnUse">
<stop offset="0.0338" stop-color="#2E8CFF"/>
<stop offset="0.0993" stop-color="#6567E5"/>
<stop offset="0.1648" stop-color="#9448CF"/>
<stop offset="0.23" stop-color="#BA2EBD"/>
<stop offset="0.2941" stop-color="#D81AAF"/>
<stop offset="0.357" stop-color="#EE0CA5"/>
<stop offset="0.4179" stop-color="#FB039F"/>
<stop offset="0.4749" stop-color="#FF009D"/>
</linearGradient>
</defs>
</svg>
